<?xml version="1.0" standalone="no"?>
<!DOCTYPE svg PUBLIC "-//W3C//DTD SVG 20010904//EN"
 "http://www.w3.org/TR/2001/REC-SVG-20010904/DTD/svg10.dtd">
<svg version="1.0" xmlns="http://www.w3.org/2000/svg"
 width="512.000000pt" height="512.000000pt" viewBox="0 0 512.000000 512.000000"
 preserveAspectRatio="xMidYMid meet">
<metadata>
Created by potrace 1.11, written by Peter Selinger 2001-2013
</metadata>
<g transform="translate(0.000000,512.000000) scale(0.100000,-0.100000)"
fill="#000000" stroke="none">
<path d="M2400 5109 c-1226 -75 -2223 -1013 -2376 -2234 -21 -170 -21 -460 0
-630 145 -1162 1059 -2076 2221 -2221 242 -30 637 -15 849 32 479 107 897 331
1245 669 217 210 369 418 507 690 284 562 347 1189 183 1804 -221 829 -847
1494 -1662 1765 -306 102 -641 145 -967 125z m-1080 -1038 c362 -81 673 -314
825 -620 l40 -80 372 0 373 -1 18 38 c135 278 374 495 669 608 76 29 274 76
282 68 4 -3 8 -353 11 -777 l5 -772 68 -99 c42 -63 74 -122 87 -163 51 -167 1
-349 -129 -466 -26 -23 -137 -92 -247 -154 -109 -61 -311 -174 -449 -251
l-250 -140 -30 55 c-37 70 -102 142 -162 182 -53 36 -158 71 -209 71 l-34 0 0
-265 c0 -146 -2 -265 -3 -265 -2 0 -99 52 -216 115 -117 63 -216 115 -220 115
-12 0 -851 471 -902 507 -65 45 -111 100 -150 178 -29 59 -34 80 -37 160 -6
124 18 194 109 330 l69 102 0 771 c0 611 3 772 13 772 6 0 50 -9 97 -19z"/>
<path d="M1670 2376 l0 -84 37 -7 c117 -22 222 -131 223 -232 l0 -33 90 0 90
0 -6 43 c-16 113 -60 202 -137 275 -62 57 -113 86 -194 107 -104 27 -103 28
-103 -69z"/>
<path d="M3335 2446 c-164 -52 -284 -184 -315 -345 -16 -86 -21 -81 79 -81
l88 0 7 49 c14 106 100 187 229 215 27 6 27 7 27 91 l0 85 -37 -1 c-21 0 -56
-6 -78 -13z"/>
</g>
</svg>
